<svg xmlns="http://www.w3.org/2000/svg" viewBox="0 0 319933 333333" shape-rendering="geometricPrecision" text-rendering="geometricPrecision" image-rendering="optimizeQuality" fill-rule="evenodd" clip-rule="evenodd"><path d="M259661 5207c-3818-3545-8181-5455-13091-5181-4909 0-9272 1909-12817 5727l-28909 30000 80999 78272 29181-30546c3545-3546 4909-8182 4909-13090 0-4909-1910-9546-5455-12818L259660 5208zM108027 298657c-10637 3545-21544 6818-32181 10364-10636 3545-21272 7089-32181 10636-25364 8181-39272 12818-42273 13636-3000 819-1091-10909 5182-35454l20181-77181 1656-1721 79667 79667-52 54zM57863 188324L182936 58478l80999 77998-126432 131488-79640-79640z"/></svg>